PathFileType	4	(X/Y/Z)	C:\Users\Basilio\Documents\Thesis Gigler\squatting_fais\c3dfiles\077\SLS_front_pre5\markers_experimental.trc
DataRate	CameraRate	NumFrames	NumMarkers	Units	OrigDataRate	OrigDataStartFrame	OrigNumFrames
200.000000	200.000000	4	60	mm	200.000000	0	1572
Frame#	Time	FHD			LBHD			RBHD			C7			T10			CLAV			LSHO			LUUPA			LMUPA			LDUPA			LLEP			LMEP			LRAD			LUL			LRFIN			RSHO			RUPA1			RMUPA			RDUPA			RLEP			RMEP			RRAD			RUL			RUFIN			LASI			RASI			USACR			LSACR			RSACR			LTHI1			LTHI2			LTHI3			LTHI4			LLFC			LMFC			LTIB1			LTIB2			LTIB3			LTIB4			LLMAL			LHEE			LMT1			LMT2			LMT5			RTHI			RTHI2			RTHI3			RTHI4			RLFC			RMFC			RTIB1			RTIB2			RTIB3			RTIB4			RLMAL			RMMAL			RHEE			RMT1			RMT2			RMT5			
		X1	Y1	Z1	X2	Y2	Z2	X3	Y3	Z3	X4	Y4	Z4	X5	Y5	Z5	X6	Y6	Z6	X7	Y7	Z7	X8	Y8	Z8	X9	Y9	Z9	X10	Y10	Z10	X11	Y11	Z11	X12	Y12	Z12	X13	Y13	Z13	X14	Y14	Z14	X15	Y15	Z15	X16	Y16	Z16	X17	Y17	Z17	X18	Y18	Z18	X19	Y19	Z19	X20	Y20	Z20	X21	Y21	Z21	X22	Y22	Z22	X23	Y23	Z23	X24	Y24	Z24	X25	Y25	Z25	X26	Y26	Z26	X27	Y27	Z27	X28	Y28	Z28	X29	Y29	Z29	X30	Y30	Z30	X31	Y31	Z31	X32	Y32	Z32	X33	Y33	Z33	X34	Y34	Z34	X35	Y35	Z35	X36	Y36	Z36	X37	Y37	Z37	X38	Y38	Z38	X39	Y39	Z39	X40	Y40	Z40	X41	Y41	Z41	X42	Y42	Z42	X43	Y43	Z43	X44	Y44	Z44	X45	Y45	Z45	X46	Y46	Z46	X47	Y47	Z47	X48	Y48	Z48	X49	Y49	Z49	X50	Y50	Z50	X51	Y51	Z51	X52	Y52	Z52	X53	Y53	Z53	X54	Y54	Z54	X55	Y55	Z55	X56	Y56	Z56	X57	Y57	Z57	X58	Y58	Z58	X59	Y59	Z59	X60	Y60	Z60	

1	0	-256.7207946777344	1869.481567382813	-943.3492431640627	-413.3897399902345	1763.309936523438	-963.0698852539065	-372.3069763183594	1761.92236328125	-822.2727661132815	-454.2054748535157	1614.769775390625	-912.6013793945315	-464.0437011718751	1285.923461914063	-907.9649047851565	-286.7109375000001	1568.506469726563	-918.525329589844	-374.6832275390626	1587.791870117188	-1108.925659179688	-397.8999023437501	1359.796630859375	-1199.413452148438	-353.3337097167969	1340.224243164063	-1193.923583984375	-391.9402465820314	1291.346557617188	-1201.148071289063	-374.7492675781251	1227.784423828125	-1200.611938476563	-413.296600341797	1211.138061523438	-1135.418090820313	-216.6987609863282	978.421325683594	-1125.5361328125	-268.4622802734376	945.7076416015627	-1179.17822265625	-161.489501953125	910.6646728515627	-1151.139282226563	-352.4010009765626	1581.163940429688	-725.5984497070314	-369.6058959960938	1363.439453125	-619.6713256835939	-327.0283203125001	1344.19287109375	-632.2164306640626	-359.2239685058594	1294.609741210938	-616.8856201171876	-343.0330810546876	1230.7734375	-616.4468994140626	-385.8421936035157	1208.130859375	-681.7655029296876	-200.8829040527344	973.7313232421877	-675.4829711914064	-238.9321441650391	954.789245605469	-609.0121459960939	-167.3167114257813	881.1221923828127	-660.8272094726564	-267.1796875000001	1080.635498046875	-1043.455200195313	-259.5767517089844	1106.634643554688	-755.3914794921876	-466.6793518066407	1161.92724609375	-899.440368652344	-471.9497985839845	1131.075805664063	-927.345642089844	-471.9326782226564	1129.429809570313	-872.4523925781252	-354.1486511230469	871.6480712890627	-1100.147827148438	-337.3697204589844	790.4002075195315	-1099.295288085938	-289.9407348632813	786.3494873046877	-1094.392578125	-372.4332580566407	742.4919433593751	-1083.632690429688	-365.4508056640626	594.3598632812501	-1064.585693359375	-351.6577758789063	562.5767211914064	-933.961853027344	-331.0543518066407	371.5102844238282	-1016.452880859375	-366.0419311523438	331.9243164062501	-1089.269287109375	-333.0219421386719	327.7656860351563	-1056.912109375	-333.5467224121094	246.7470855712891	-1033.598876953125	-393.0916442871095	128.34765625	-1080.00048828125	-444.9998168945314	98.12830352783206	-1031.2802734375	-238.1439514160157	56.2962989807129	-1013.432006835938	-231.8816680908204	57.15822982788087	-1055.344604492188	-358.2704162597657	135.8941802978516	-997.9422607421877	-394.4587402343751	771.3280029296877	-726.1156005859376	-367.1845092773438	711.6115722656251	-725.2456054687501	-333.3645019531251	708.7363891601564	-725.4521484375001	-403.8294372558595	641.6351318359376	-746.9932861328126	-409.4367980957032	571.0458984375001	-751.4607543945314	-363.8972778320313	557.9770507812501	-875.7900390625002	-352.9881286621094	436.261688232422	-765.6884765625001	-415.1672973632814	353.1071777343751	-740.3887329101564	-369.2597961425782	351.1029968261719	-755.2554931640626	-358.1540527343751	307.8039855957032	-794.4436035156252	-419.1805725097657	125.0214309692383	-764.5661621093751	-382.3914794921876	134.503173828125	-849.9719848632815	-473.3232727050782	101.6174697875977	-824.2016601562502	-253.7622985839844	61.93379211425783	-801.7148437500002	-260.7261962890626	59.41588592529298	-763.7912597656251	-282.8670043945313	42.5880355834961	-717.1620483398439	
2	0.005	-256.9275207519532	1869.468017578125	-943.6209106445315	-413.6135864257814	1763.293823242188	-963.2107543945315	-373.0776672363282	1760.995239257813	-823.313903808594	-454.3990478515626	1614.704833984375	-912.6284790039065	-464.1156005859376	1285.873657226563	-908.0477294921877	-286.9215087890626	1568.564819335938	-918.6633911132815	-375.0768432617188	1587.82470703125	-1109.025268554688	-398.2859497070314	1359.785766601563	-1199.570434570313	-353.6893920898438	1340.239501953125	-1194.056396484375	-392.2496643066407	1291.384155273438	-1201.261352539063	-375.1111450195313	1227.8173828125	-1200.728393554688	-413.871551513672	1211.190673828125	-1135.563354492188	-217.4595642089844	978.2303466796877	-1125.616821289063	-269.1730651855469	945.6636352539065	-1179.354858398438	-162.2626190185547	910.4384765625002	-1151.140869140625	-352.5685424804688	1581.208740234375	-725.7549438476564	-369.7230529785157	1363.470458984375	-619.7421264648439	-327.1157531738282	1344.221923828125	-632.2873535156251	-359.3577270507813	1294.644165039063	-616.9266967773439	-343.1245422363282	1230.83740234375	-616.4902343750001	-385.9705810546876	1208.135864257813	-681.8057861328126	-200.9834747314454	973.7278442382815	-675.5488281250001	-239.0963287353516	954.7701416015627	-609.0621948242189	-167.486312866211	881.0913696289065	-660.9254760742189	-267.3294982910157	1080.638305664063	-1043.600708007813	-259.6387634277344	1106.612915039063	-755.5585937500001	-466.7576599121095	1161.915283203125	-899.4610595703127	-472.042205810547	1131.05517578125	-927.3516235351565	-472.0391540527345	1129.439086914063	-872.397399902344	-354.3322448730469	871.6000976562502	-1100.259521484375	-337.4864501953126	790.3953857421877	-1099.351806640625	-288.8678894042969	785.8753662109377	-1094.037841796875	-372.5841369628907	742.4594116210939	-1083.6884765625	-365.5719909667969	594.3425903320314	-1064.607666015625	-351.7802124023438	562.5795288085939	-934.0198364257815	-331.1255493164063	371.5102844238282	-1016.498596191406	-366.0897216796876	331.9265136718751	-1089.262939453125	-333.1757507324219	327.6781921386719	-1056.943725585938	-332.9258728027344	246.2547607421876	-1033.192993164063	-393.0852661132814	128.3240356445313	-1080.030395507813	-445.0071411132814	98.11782073974612	-1031.309814453125	-238.1314697265626	56.28834915161134	-1013.458190917969	-231.3709716796876	58.34185791015626	-1055.59375	-358.2704772949219	135.8589782714844	-997.9517211914065	-394.424285888672	771.3126220703127	-726.1007690429689	-367.1162414550782	711.5750122070314	-725.2952270507814	-333.3411865234376	708.7293701171876	-725.5739135742189	-403.7889709472657	641.6407470703126	-747.0031738281251	-409.3713989257814	571.0512695312501	-751.4721069335939	-363.9080810546876	557.9534912109376	-875.7884521484377	-352.9454040527344	436.2626037597657	-765.7368774414064	-415.1296997070314	353.1000366210938	-740.3767700195314	-369.2233276367188	351.1109008789063	-755.2922973632814	-358.1213989257813	307.8035278320313	-794.466003417969	-419.1404724121095	125.0313873291016	-764.5986938476564	-382.4169921875001	134.516357421875	-849.9780273437502	-473.3236694335939	101.5984420776367	-824.1829223632815	-253.7703094482422	62.00423812866212	-801.7244873046877	-260.7528991699219	59.3915138244629	-763.8364868164064	-282.8714294433594	42.58530807495118	-717.1779174804689	
3	0.01	-257.1262512207032	1869.478149414063	-943.830017089844	-413.6918029785157	1763.310913085938	-963.3115844726565	-373.3380126953126	1761.04345703125	-823.5081787109377	-454.6177673339845	1614.662963867188	-912.6710205078127	-464.1594848632814	1285.847534179688	-908.1499023437502	-287.0906677246094	1568.623291015625	-918.8232421875002	-375.3980407714844	1587.82861328125	-1109.11572265625	-398.6068420410157	1359.803344726563	-1199.658325195313	-354.0193176269532	1340.229858398438	-1194.11767578125	-392.6570434570314	1291.454956054688	-1201.367553710938	-375.5271911621094	1227.870483398438	-1200.838745117188	-414.3363342285157	1211.271484375	-1135.725952148438	-218.2139739990235	978.0306396484377	-1125.67578125	-269.9457092285157	945.5769042968752	-1179.521240234375	-162.9873046875	910.245788574219	-1151.039672851563	-352.6987915039063	1581.2197265625	-725.8732299804689	-369.8826293945313	1363.512329101563	-619.8483886718751	-327.2347106933594	1344.258178710938	-632.3424682617189	-359.4935302734376	1294.671142578125	-617.0182495117189	-343.2425537109376	1230.849975585938	-616.5447998046876	-386.1052856445314	1208.1650390625	-681.8444213867189	-201.4027709960938	973.9937744140627	-675.7418823242189	-239.2589874267579	954.816101074219	-609.0567016601564	-167.6948699951172	881.1008300781252	-660.9690551757814	-267.5186462402344	1080.597412109375	-1043.7314453125	-259.7333984375001	1106.634399414063	-755.7346801757814	-466.8477172851564	1161.901000976563	-899.5046997070315	-472.1427001953126	1131.037353515625	-927.305358886719	-472.1278381347657	1129.436157226563	-872.4519653320315	-354.4013061523438	871.5388183593752	-1100.311157226563	-337.6226501464844	790.3481445312502	-1099.37841796875	-288.9660339355469	785.8587036132815	-1094.073120117188	-372.7659912109376	742.4396972656251	-1083.71630859375	-365.6719665527344	594.3024902343751	-1064.654663085938	-351.8246154785157	562.5848388671876	-934.0682373046877	-331.2290344238282	371.4828491210938	-1016.502258300781	-366.1683959960938	331.8878479003907	-1089.298583984375	-333.1224060058594	327.7573852539063	-1056.952026367188	-332.9635009765626	246.2372131347657	-1033.242553710938	-393.126434326172	128.3051910400391	-1080.033081054688	-445.0074157714845	98.07416534423831	-1031.2724609375	-238.1352996826172	56.26818084716798	-1013.454895019531	-231.3547058105469	58.44486236572267	-1055.562133789063	-358.2912902832032	135.853012084961	-997.9497680664065	-394.3374938964845	771.2847900390627	-726.0808105468751	-367.0554199218751	711.5848388671876	-725.2892456054689	-333.2669677734376	708.7407836914064	-725.6079101562501	-403.6929016113282	641.5973510742189	-746.9768676757814	-409.334686279297	571.0228881835939	-751.4301147460939	-363.9546813964844	557.9461669921876	-875.8258056640627	-352.9015197753907	436.2709045410157	-765.7105712890626	-415.0631103515626	353.0795288085938	-740.3928833007814	-369.1802673339844	351.1123962402344	-755.2722778320314	-358.1122436523438	307.8003234863282	-794.4771118164065	-419.1222229003907	125.0352020263672	-764.5562133789064	-382.3927917480469	134.5199432373047	-849.969421386719	-473.2991638183595	101.5889739990235	-824.214050292969	-253.7763824462891	62.00497436523439	-801.7280883789065	-260.7328796386719	59.38522338867189	-763.8739013671876	-282.8819885253907	42.57681274414063	-717.2122802734376	
4	0.015	-257.3804321289063	1869.498779296875	-944.1614990234377	-414.0516357421876	1763.297119140625	-963.417175292969	-373.5469360351563	1761.097534179688	-823.714050292969	-454.852508544922	1614.60205078125	-912.6846313476565	-464.250701904297	1285.810302734375	-908.2030029296877	-287.3080444335938	1568.679077148438	-918.9844360351565	-375.6876220703126	1587.854370117188	-1109.203979492188	-398.9604797363282	1359.820678710938	-1199.820068359375	-354.3258056640626	1340.263305664063	-1194.173583984375	-393.0427856445314	1291.461791992188	-1201.528198242188	-375.9128417968751	1227.895629882813	-1200.9453125	-414.7095336914064	1211.315307617188	-1135.873901367188	-219.0118560791016	977.8370361328127	-1125.662353515625	-270.6130065917969	945.4888305664065	-1179.652709960938	-163.8012847900391	910.0302734375002	-1151.13720703125	-352.8295593261719	1581.2529296875	-726.0076904296876	-370.0217285156251	1363.544311523438	-619.9820556640626	-327.4230957031251	1344.271362304688	-632.3900146484376	-359.6083984375001	1294.703979492188	-617.0726928710939	-343.3316650390626	1230.8896484375	-616.5979614257814	-386.2086791992189	1208.173217773438	-681.8251342773439	-201.5162506103516	974.0048828125002	-675.7434082031251	-239.374496459961	954.813171386719	-609.0777587890626	-167.9246520996094	881.113952636719	-661.0176391601564	-267.7369079589844	1080.544189453125	-1043.816528320313	-259.7535705566407	1106.618530273438	-755.9005126953126	-466.9190979003907	1161.892578125	-899.4661865234377	-472.2387695312501	1131.047607421875	-927.3113403320315	-472.2303771972657	1129.39990234375	-872.3718872070315	-354.5798950195313	871.6002197265627	-1100.395263671875	-337.7325744628907	790.4052734375002	-1099.448608398438	-289.0978088378907	785.8686523437502	-1094.1611328125	-372.8703918457032	742.4136962890626	-1083.789794921875	-365.7374572753907	594.2783203125001	-1064.708251953125	-351.9278259277344	562.5190429687501	-934.123718261719	-330.5778198242188	371.1309509277344	-1016.127685546875	-366.1702575683594	331.8215332031251	-1089.28955078125	-333.2823791503907	327.6329650878907	-1056.97998046875	-332.9866943359376	246.2347564697266	-1033.299194335938	-393.1151123046876	128.281005859375	-1080.057495117188	-445.017059326172	98.045524597168	-1031.273315429688	-238.1378784179688	56.28834915161134	-1013.415100097656	-231.3618316650391	58.3135223388672	-1055.612426757813	-358.3144226074219	135.8384399414063	-997.9460449218752	-394.3063354492189	771.284118652344	-726.0720214843751	-367.0189514160157	711.5842285156251	-725.3047485351564	-333.1954650878907	708.7595214843751	-725.6649169921876	-403.6981811523439	641.5859375000001	-746.9787597656251	-409.2985229492189	570.9951782226564	-751.4389038085939	-363.9909667968751	557.9609985351564	-875.8420410156252	-352.8753662109376	436.2457885742189	-765.7889404296876	-415.0235290527345	353.0343322753907	-740.3940429687501	-369.1321105957032	351.1286621093751	-755.3052978515626	-358.1112060546876	307.8154907226563	-794.4612426757815	-419.1026000976564	125.0142135620117	-764.5585327148439	-382.3851623535157	134.4593811035157	-849.967712402344	-473.292938232422	101.6325836181641	-824.1902465820315	-253.7841949462891	61.98312759399415	-801.748474121094	-260.7153320312501	59.40142059326173	-763.8967285156251	-282.8589477539063	42.5600929260254	-717.2174682617189	
